<svg width="45" height="47" viewBox="0 0 45 47" fill="none" xmlns="http://www.w3.org/2000/svg">
<path d="M44.3311 18.5641C42.2292 8.71303 35.5392 1.74895 25.455 0.38885C22.8101 0.0295789 17.3743 1.06569 14.9231 1.91896C12.6656 2.69845 10.4049 3.60625 8.45537 5.02088C5.00083 7.50691 2.56551 11.1349 1.24466 15.1735C-1.70186 24.2002 0.790615 32.7842 6.53442 39.8734C8.08388 41.798 11.4495 44.5471 13.8563 45.163C16.1932 45.7661 18.0061 45.8655 20.3843 46.0933C25.147 46.5552 30.0431 46.151 34.0755 43.3121C36.0204 41.8956 37.8528 40.3275 39.5557 38.6223C41.2894 36.9319 42.7594 35.0393 43.6389 32.7585C45.3281 28.3703 45.3059 23.116 44.3311 18.5641ZM43.1532 29.0215C42.7531 31.3439 42.0323 33.5316 40.5749 35.4017C39.2096 37.1596 37.4824 38.6288 35.8123 40.0883C34.085 41.6056 32.2498 43.0683 30.0685 43.8542C27.922 44.5822 25.6634 44.9136 23.4007 44.8326C21.1401 44.7696 18.8861 44.5553 16.6535 44.1911C14.4691 43.8703 12.183 43.2768 10.4239 41.7884C8.74953 40.3711 7.30625 38.6965 6.14705 36.826C4.93085 34.8933 3.92687 32.8325 3.15291 30.6799C1.73363 26.683 1.14305 22.3204 1.96224 18.1214C2.81952 13.7589 4.97861 9.64008 8.42044 6.80761C10.3096 5.25184 12.5799 4.27347 14.8659 3.47152C17.4061 2.58618 22.0354 1.54686 23.6452 1.54686C32.0339 1.54686 39.2763 7.96241 42.0292 15.7958C43.5153 20.0362 43.9022 24.5904 43.1532 29.0247" fill="#AC8557"/>
<path d="M15.9449 20.4122L13.8747 22.1284L12.8428 20.8902L16.1068 18.2341H17.7166V28.7973H15.9449V20.4122Z" fill="#AC8557"/>
<path d="M21.423 20.8452C21.4193 20.4728 21.4917 20.1037 21.6357 19.761C21.773 19.4276 21.9736 19.1246 22.2263 18.8692C22.4775 18.6181 22.7739 18.4178 23.0995 18.279C23.4382 18.135 23.802 18.0608 24.1695 18.0608C24.537 18.0608 24.9008 18.135 25.2395 18.279C25.8966 18.5631 26.4206 19.0913 26.7032 19.7545C26.9867 20.4479 26.9867 21.2265 26.7032 21.9198C26.4206 22.583 25.8966 23.1113 25.2395 23.3954C24.9008 23.5394 24.537 23.6135 24.1695 23.6135C23.802 23.6135 23.4382 23.5394 23.0995 23.3954C22.7729 23.2527 22.4764 23.048 22.2263 22.7923C21.9739 22.541 21.7722 22.2425 21.6325 21.9134C21.4915 21.5754 21.4202 21.2119 21.423 20.8452ZM25.4998 20.8452C25.4941 20.5398 25.3841 20.2459 25.1885 20.0131C24.9929 19.7802 24.7236 19.6228 24.4263 19.5675C24.129 19.5122 23.822 19.5623 23.5571 19.7094C23.2922 19.8565 23.0857 20.0916 22.9726 20.3748C22.8596 20.6581 22.8468 20.9721 22.9366 21.2637C23.0263 21.5553 23.213 21.8067 23.4651 21.9752C23.7172 22.1437 24.0192 22.2191 24.32 22.1886C24.6207 22.158 24.9018 22.0234 25.1157 21.8075C25.2413 21.6821 25.3401 21.532 25.4062 21.3665C25.4723 21.201 25.5041 21.0236 25.4998 20.8452ZM30.1641 17.7561L31.3897 18.3239L25.2331 29.2752L24.0075 28.7075L30.1641 17.7561ZM28.4813 26.2022C28.4786 25.8306 28.5521 25.4626 28.6972 25.1212C28.9799 24.4561 29.5052 23.9266 30.1641 23.6424C30.8504 23.356 31.621 23.356 32.3073 23.6424C32.9638 23.9279 33.4867 24.4573 33.7679 25.1212C34.0515 25.8134 34.0515 26.591 33.7679 27.2832C33.484 27.9452 32.962 28.4737 32.3073 28.762C31.8036 28.9797 31.2466 29.0389 30.7091 28.9319C30.1715 28.8249 29.6784 28.5566 29.2941 28.1621C29.0437 27.9098 28.8432 27.6115 28.7036 27.2832C28.5563 26.9422 28.4806 26.5742 28.4813 26.2022ZM32.5582 26.2022C32.5521 25.8977 32.4422 25.6047 32.2469 25.3726C32.0517 25.1406 31.7831 24.9838 31.4866 24.9288C31.1901 24.8738 30.8839 24.9239 30.6198 25.0707C30.3557 25.2175 30.1498 25.4519 30.0371 25.7343C29.9243 26.0168 29.9116 26.3299 30.001 26.6207C30.0904 26.9115 30.2765 27.1623 30.5278 27.3305C30.7791 27.4986 31.0802 27.574 31.3801 27.5438C31.6801 27.5135 31.9605 27.3796 32.174 27.1645C32.3008 27.04 32.4005 26.89 32.4666 26.7243C32.5328 26.5586 32.564 26.3808 32.5582 26.2022Z" fill="#AC8557"/>
</svg>
