<svg width="31" height="30" viewBox="0 0 31 30" fill="none" xmlns="http://www.w3.org/2000/svg">
<path d="M15.25 0C6.97656 0 0.25 6.72656 0.25 15C0.25 23.2734 6.97656 30 15.25 30C23.5234 30 30.25 23.2734 30.25 15C30.25 6.72656 23.5234 0 15.25 0ZM15.25 27.9966C13.9084 27.9966 12.6194 27.7913 11.4006 27.4163C11.9284 26.5547 12.7244 25.1372 13.0178 24.0122C13.1763 23.4028 13.8269 20.9241 13.8269 20.9241C14.2488 21.7331 15.4909 22.4184 16.8034 22.4184C20.7231 22.4184 23.5478 18.8147 23.5478 14.3325C23.5478 10.0378 20.0434 6.82688 15.5378 6.82688C9.93062 6.82688 6.95406 10.5947 6.95406 14.6897C6.95406 16.5938 7.9675 18.9675 9.59125 19.7231C9.83687 19.8403 9.96625 19.7878 10.0253 19.5469C10.0666 19.365 10.2887 18.4866 10.3881 18.0703C10.4172 17.9419 10.4059 17.8247 10.3 17.6953C9.76094 17.0447 9.33344 15.8438 9.33344 14.7309C9.33344 11.8659 11.5019 9.08813 15.1984 9.08813C18.3916 9.08813 20.6247 11.2622 20.6247 14.3728C20.6247 17.8884 18.8491 20.3259 16.5409 20.3259C15.2631 20.3259 14.3088 19.2712 14.6191 17.9766C14.9884 16.4297 15.6972 14.7656 15.6972 13.6519C15.6972 12.6553 15.1637 11.8238 14.0509 11.8238C12.7441 11.8238 11.7016 13.1719 11.7016 14.9822C11.7016 16.1306 12.0878 16.9097 12.0878 16.9097C12.0878 16.9097 10.7987 22.3528 10.5644 23.3662C10.3009 24.4912 10.4059 26.0672 10.5175 27.0928C5.68375 25.2066 2.25531 20.5069 2.25531 14.9991C2.25531 7.82156 8.07344 2.0025 15.2509 2.0025C22.4284 2.0025 28.2475 7.82062 28.2475 14.9991C28.2475 22.1766 22.4294 27.9956 15.2509 27.9956L15.25 27.9966Z" fill="black"/>
</svg>
