<svg width="29" height="22" viewBox="0 0 29 22" fill="none" xmlns="http://www.w3.org/2000/svg">
<path d="M6.45172 2.27553C6.45172 2.27553 2.87577 -0.999552 0.687435 1.85546C-1.5009 4.71048 2.17148 9.76835 2.93306 11.2863C3.69464 12.8042 6.45172 2.27553 6.45172 2.27553Z" fill="#151310"/>
<path d="M22.2256 2.18871C22.2256 2.18871 25.7764 -1.12339 27.9899 1.71453C30.2033 4.55246 26.5701 9.63596 25.8281 11.1639C25.0861 12.6917 22.2256 2.19298 22.2256 2.19298" fill="#151310"/>
<path d="M27.0801 9.39523C27.0801 17.8364 21.3843 21.5814 14.3526 21.5814C7.32085 21.5814 1.62085 18.4003 1.62085 9.39523C1.62085 3.42177 7.31946 0.408691 14.3526 0.408691C21.3857 0.408691 27.0801 3.42461 27.0801 9.39523Z" fill="white"/>
<path d="M14.3511 22C5.89962 22 1.24487 17.5245 1.24487 9.39806C1.24487 3.6866 6.38871 0 14.3511 0C22.3135 0 27.4531 3.68945 27.4531 9.39806C27.4531 13.4777 26.1144 16.794 23.5837 18.9841C21.3018 20.9577 18.1087 22 14.3511 22ZM14.3511 0.827314C10.7933 0.827314 7.74419 1.58628 5.53909 3.02304C3.2194 4.531 1.99388 6.7367 1.99388 9.39521C1.99388 14.7635 4.13889 21.1641 14.3511 21.1641C22.0871 21.1641 26.7041 16.7656 26.7041 9.39521C26.7041 6.73385 25.4814 4.52816 23.1631 3.02019C20.9594 1.5877 17.9089 0.827314 14.3511 0.827314Z" fill="#12110C"/>
</svg>
