<svg width="45" height="45" viewBox="0 0 45 45" fill="none" xmlns="http://www.w3.org/2000/svg">
<path d="M43.4856 14.0815C38.5263 14.8811 33.5103 15.2732 28.4875 15.2538C28.0546 13.775 27.6288 12.3105 27.2208 10.8318C26.4236 7.948 25.6797 5.04992 24.989 2.1376C24.7584 1.16841 23.1936 0.819212 22.7749 1.83829C21.7105 4.44299 20.976 7.1831 20.199 9.88757C19.6856 11.6858 19.1723 13.4852 18.659 15.2858C16.4485 15.5139 14.2487 15.8738 12.0346 16.0662C9.05414 16.3263 6.06303 16.4581 3.07547 16.5864C2.13875 16.6292 1.32977 18.0117 2.21681 18.7243C6.3114 22.0381 11.3214 23.6807 15.6999 26.5135C15.6999 26.5883 15.6679 26.6596 15.6537 26.7344C15.3829 28.0884 15.0346 29.4257 14.6106 30.7395C14.1635 32.0543 13.6064 33.3228 13.0991 34.6127C12.1022 37.1504 11.3385 39.7743 10.8176 42.4517C10.6615 42.6691 10.5444 43.877 11.2114 44.1157C12.024 44.7179 12.8933 43.9304 13.241 43.5135C14.9831 41.7319 16.1789 39.9717 17.7543 38.2899C19.5887 36.3337 21.4444 34.3989 23.3817 32.5531C24.9571 33.9356 26.5112 35.3467 28.0901 36.7221C30.3048 38.6916 32.6328 40.5286 35.0622 42.2237C35.9174 42.8045 37.1912 41.8317 36.8363 40.7984C35.1084 35.7564 33.3804 30.7181 31.727 25.6512C33.2811 24.4967 34.8529 23.3601 36.4212 22.2163L44.4188 16.3797C44.6668 16.221 44.8516 15.98 44.9408 15.6985C45.03 15.4171 45.0181 15.1131 44.907 14.8396C44.796 14.5661 44.5929 14.3404 44.3331 14.2019C44.0734 14.0633 43.7734 14.0207 43.4856 14.0815Z" fill="#AC8557"/>
<path d="M41.6553 13.0948C36.697 13.8928 31.6823 14.2849 26.6607 14.2671C26.2278 12.7955 25.802 11.3239 25.394 9.85588C24.5968 6.97443 23.8529 4.07636 23.1622 1.16165C22.9316 0.181772 21.3668 -0.167422 20.941 0.851654C19.8766 3.45636 19.1386 6.19646 18.3651 8.90094C17.8518 10.6968 17.3385 12.495 16.8252 14.2956C14.6146 14.5237 12.4148 14.8836 10.2007 15.0795C7.21671 15.3396 4.22914 15.4679 1.23803 15.5998C0.304864 15.639 -0.504119 17.025 0.382924 17.7377C4.48461 21.0586 9.49463 22.6834 13.8695 25.534C13.8695 25.6052 13.8376 25.6801 13.8234 25.7513C13.5551 27.1059 13.2068 28.4433 12.7802 29.7564C12.3332 31.0712 11.7797 32.3397 11.2723 33.6296C10.2759 36.1674 9.51221 38.7914 8.99079 41.4686C8.83467 41.686 8.71758 42.8939 9.38464 43.1327C10.1972 43.7348 11.0629 42.9509 11.4142 42.5305C13.1563 40.7489 14.3485 38.9922 15.9275 37.3068C17.7477 35.3328 19.614 33.4015 21.5478 31.5522C23.1232 32.9383 24.6773 34.3493 26.2562 35.7212C28.4731 37.6862 30.8023 39.5196 33.2319 41.2121C34.087 41.7965 35.3608 40.8201 35.006 39.7868C33.2745 34.7484 31.543 29.7101 29.8931 24.6432C31.4472 23.4887 33.019 22.3556 34.5873 21.2118L42.5849 15.3895C42.8304 15.2298 43.0127 14.9889 43.1003 14.7086C43.188 14.4283 43.1754 14.126 43.0647 13.854C42.9541 13.582 42.7524 13.3573 42.4945 13.2187C42.2365 13.0801 41.9384 13.0363 41.6517 13.0948" fill="#CFB79B"/>
</svg>
