<svg width="57" height="42" viewBox="0 0 57 42" fill="none" xmlns="http://www.w3.org/2000/svg">
<path d="M13.0916 4.34415C13.0916 4.34415 6.1131 -1.90828 1.84254 3.54221C-2.42802 8.99269 4.73867 18.6486 6.22491 21.5465C7.71115 24.4443 13.0916 4.34415 13.0916 4.34415Z" fill="#AC8557"/>
<path d="M43.875 4.17833C43.875 4.17833 50.8044 -2.14477 55.1241 3.27309C59.4437 8.69096 52.3534 18.3958 50.9053 21.3127C49.4573 24.2296 43.875 4.18649 43.875 4.18649" fill="#AC8557"/>
<path d="M53.3482 17.9363C53.3482 34.0512 42.2327 41.2007 28.5102 41.2007C14.7877 41.2007 3.66406 35.1277 3.66406 17.9363C3.66406 6.53238 14.785 0.780151 28.5102 0.780151C42.2355 0.780151 53.3482 6.53782 53.3482 17.9363Z" fill="white"/>
<path d="M28.5067 42C12.0135 42 2.92969 33.4559 2.92969 17.9417C2.92969 7.03806 12.968 0 28.5067 0C44.0454 0 54.0755 7.0435 54.0755 17.9417C54.0755 25.7301 51.463 32.0614 46.5243 36.2423C42.0711 40.0101 35.8397 42 28.5067 42ZM28.5067 1.57942C21.5636 1.57942 15.6132 3.02835 11.3099 5.77126C6.78301 8.6501 4.39139 12.861 4.39139 17.9363C4.39139 28.1849 8.57741 40.4043 28.5067 40.4043C43.6037 40.4043 52.6138 32.007 52.6138 17.9363C52.6138 12.8555 50.2277 8.64466 45.7035 5.76582C41.4029 3.03107 35.4498 1.57942 28.5067 1.57942Z" fill="#AC8557"/>
</svg>
