<svg width="57" height="56" viewBox="0 0 57 56" fill="none" xmlns="http://www.w3.org/2000/svg">
<path d="M28.5175 5.04158C35.9947 5.04158 36.8877 5.04158 39.8296 5.21663C41.6243 5.21945 43.4038 5.5456 45.0829 6.17943C46.3012 6.62011 47.4031 7.33253 48.3049 8.26258C49.2328 9.16947 49.9501 10.269 50.4062 11.4836C51.0312 13.1646 51.3572 14.9419 51.3693 16.7352C51.4919 19.6761 51.5269 20.5689 51.5269 28.0438C51.5269 35.5186 51.5269 36.4114 51.3693 39.3523C51.3594 41.1458 51.0333 42.9235 50.4062 44.6039C49.9565 45.8217 49.2383 46.9225 48.3049 47.8249C47.401 48.7483 46.3077 49.4649 45.1004 49.9256C43.4178 50.5467 41.6406 50.8724 39.8471 50.8884C36.8877 51.0109 35.9947 51.0459 28.535 51.0459C21.0754 51.0459 20.1473 51.0459 17.2054 50.8884C15.4118 50.8742 13.6342 50.5484 11.9522 49.9256C10.7392 49.4758 9.64375 48.7577 8.74765 47.8249C7.81271 46.9307 7.09406 45.8351 6.64634 44.6214C6.01633 42.9418 5.69021 41.1636 5.68324 39.3698C5.54315 36.4114 5.50813 35.5186 5.50813 28.0613C5.50813 20.6039 5.50813 19.6937 5.68324 16.7352C5.68796 14.9412 6.01415 13.1626 6.64634 11.4836C7.09853 10.2637 7.83017 9.16656 8.78268 8.28009C9.68062 7.34128 10.7833 6.62239 12.0047 6.17943C13.6862 5.55457 15.4641 5.22872 17.258 5.21663C20.1998 5.07659 21.0754 5.04158 28.57 5.04158H28.5175ZM28.5175 0C20.9178 0 19.9547 0 16.9778 0.157549C14.6492 0.206278 12.3458 0.650235 10.166 1.47046C8.2935 2.1675 6.6004 3.27395 5.21044 4.70897C3.7786 6.10148 2.67237 7.79319 1.97092 9.66302C1.15008 11.836 0.705944 14.1329 0.657598 16.4551C0.5 19.4486 0.5 20.4114 0.5 28.0088C0.5 35.6061 0.5 36.5689 0.657598 39.5449C0.704641 41.8729 1.14879 44.1758 1.97092 46.3545C2.66817 48.2264 3.77497 49.919 5.21044 51.3085C6.60811 52.7342 8.29899 53.8392 10.166 54.547C12.341 55.3607 14.6385 55.7987 16.9603 55.8424C19.9547 56.0175 20.9002 56.0175 28.5175 56.0175C36.1348 56.0175 37.0804 56.0175 40.0747 55.86C42.3967 55.8179 44.6945 55.3798 46.869 54.5645C48.736 53.8567 50.4269 52.7517 51.8246 51.326C53.2514 49.9329 54.3518 48.241 55.0466 46.372C55.8674 44.199 56.3116 41.9021 56.3599 39.5799C56.535 36.5864 56.535 35.6236 56.535 28.0088C56.535 20.3939 56.535 19.4486 56.3774 16.4551C56.3308 14.1327 55.8866 11.8355 55.0641 9.66302C54.3937 7.78098 53.297 6.07945 51.8596 4.69147C50.4529 3.26433 48.749 2.16459 46.869 1.47046C44.694 0.656845 42.3966 0.218802 40.0747 0.175055C37.0804 0 36.1173 0 28.5175 0Z" fill="#AC8557"/>
<path d="M28.5171 13.6193C25.6702 13.6193 22.8873 14.4632 20.5202 16.0443C18.1531 17.6255 16.3082 19.8728 15.2187 22.5021C14.1293 25.1315 13.8442 28.0247 14.3996 30.816C14.955 33.6073 16.3259 36.1713 18.339 38.1837C20.352 40.1961 22.9168 41.5665 25.7089 42.1218C28.5011 42.677 31.3952 42.392 34.0254 41.3029C36.6556 40.2138 38.9036 38.3695 40.4852 36.0031C42.0669 33.6368 42.911 30.8547 42.911 28.0088C42.911 24.1924 41.3945 20.5324 38.6951 17.8338C35.9957 15.1353 32.3346 13.6193 28.5171 13.6193ZM28.5171 37.3392C26.6711 37.3392 24.8666 36.792 23.3317 35.7667C21.7969 34.7415 20.6006 33.2843 19.8942 31.5794C19.1878 29.8744 19.0029 27.9984 19.3631 26.1885C19.7232 24.3786 20.6121 22.716 21.9174 21.4112C23.2227 20.1063 24.8857 19.2176 26.6962 18.8576C28.5067 18.4976 30.3833 18.6824 32.0888 19.3886C33.7942 20.0948 35.2519 21.2907 36.2774 22.8251C37.303 24.3594 37.8504 26.1634 37.8504 28.0088C37.8504 30.4833 36.8671 32.8566 35.1167 34.6064C33.3664 36.3562 30.9924 37.3392 28.5171 37.3392Z" fill="#AC8557"/>
<path d="M46.8336 13.0592C46.8336 13.7239 46.6364 14.3737 46.267 14.9265C45.8975 15.4792 45.3724 15.91 44.7581 16.1644C44.1438 16.4188 43.4677 16.4853 42.8156 16.3556C42.1634 16.226 41.5643 15.9058 41.0941 15.4358C40.6239 14.9657 40.3037 14.3669 40.174 13.7149C40.0443 13.0629 40.1108 12.3871 40.3653 11.773C40.6198 11.1588 41.0507 10.6339 41.6036 10.2646C42.1565 9.89524 42.8065 9.69812 43.4715 9.69812C44.3632 9.69812 45.2183 10.0522 45.8488 10.6825C46.4794 11.3129 46.8336 12.1678 46.8336 13.0592Z" fill="#AC8557"/>
</svg>
