<svg width="45" height="47" viewBox="0 0 45 47" fill="none" xmlns="http://www.w3.org/2000/svg">
<path d="M34.8587 16.1658C34.8641 16.0633 34.8332 15.9622 34.7715 15.8806C34.7099 15.799 34.6215 15.7422 34.5222 15.7203L34.6047 15.6626L22.3395 15.6401L19.6978 17.2427H12.173C12.0466 17.2427 11.9255 17.2933 11.8362 17.3835C11.7469 17.4737 11.6967 17.5959 11.6967 17.7234C11.6967 17.8509 11.7469 17.9732 11.8362 18.0634C11.9255 18.1536 12.0466 18.2042 12.173 18.2042H18.1325L14.821 20.1849H14.9226L14.8749 20.233H6.03241C5.9061 20.233 5.78496 20.2837 5.69565 20.3738C5.60633 20.464 5.55615 20.5863 5.55615 20.7138C5.55615 20.8413 5.60633 20.9636 5.69565 21.0537C5.78496 21.1439 5.9061 21.1945 6.03241 21.1945H14.7829V24.5086H7.86442C7.7381 24.5086 7.61697 24.5593 7.52765 24.6494C7.43833 24.7396 7.38816 24.8619 7.38816 24.9894C7.38816 25.1169 7.43833 25.2392 7.52765 25.3293C7.61697 25.4195 7.7381 25.4701 7.86442 25.4701H14.7829V32.2008C14.7828 32.2647 14.7958 32.328 14.821 32.3867V32.9444H28.2324C28.305 32.9443 28.3758 32.9219 28.4356 32.8803L34.8047 28.3611L34.7508 28.281C34.789 28.2375 34.8183 28.1868 34.8368 28.1317C34.8554 28.0767 34.8628 28.0185 34.8587 27.9605V16.1658ZM33.9379 28.0919L28.5975 31.8835V20.0247C28.6008 19.9917 28.6008 19.9584 28.5975 19.9253L33.9316 16.1433V27.9605C33.9263 28.0041 33.9263 28.0482 33.9316 28.0919H33.9379ZM20.0026 20.3676H22.5109V23.733H20.0026V20.3676ZM19.2089 20.3676V23.9509C19.2054 24.0466 19.2388 24.1399 19.3022 24.2111C19.3656 24.2822 19.454 24.3257 19.5486 24.3323C19.5789 24.3967 19.6272 24.4508 19.6876 24.4878C19.748 24.5248 19.8177 24.5432 19.8883 24.5407H22.7935C22.9151 24.5268 23.0295 24.4753 23.121 24.3932C23.2125 24.3112 23.2767 24.2026 23.3047 24.0823V20.5567H27.6577V31.97C27.6562 32.058 27.6793 32.1447 27.7244 32.22H15.7195C15.7195 32.22 15.7195 32.1976 15.7195 32.1848C15.7195 32.172 15.8084 20.4285 15.7195 20.5343L19.2089 20.3676Z" fill="#AC8557"/>
<path d="M44.3301 18.5688C42.2282 8.726 35.5384 1.76776 25.4544 0.408808C22.8096 0.0498387 17.3739 1.08508 14.9227 1.93763C12.6653 2.71647 10.4047 3.62351 8.45517 5.03695C5.00071 7.52089 2.56545 11.1458 1.24463 15.181C-1.70182 24.2001 0.790596 32.7769 6.53426 39.8602C8.08369 41.7832 11.4492 44.53 13.8559 45.1454C16.1737 45.7351 18.0057 45.828 20.3838 46.062C25.1464 46.5235 30.0423 46.1197 34.0747 43.2832C36.0196 41.8678 37.8519 40.3011 39.5548 38.5974C41.2884 36.9083 42.7584 35.0173 43.6379 32.7385C45.327 28.3539 45.3048 23.104 44.3301 18.556V18.5688ZM43.1521 29.0046C42.7521 31.325 42.0313 33.5109 40.574 35.3795C39.2087 37.1359 37.4815 38.6038 35.8114 40.0621C34.0842 41.5781 32.249 43.0396 30.0677 43.8249C27.9214 44.5522 25.6628 44.8833 23.4001 44.8024C21.1396 44.7395 18.8856 44.5253 16.6532 44.1614C14.4687 43.8409 12.1827 43.2479 10.4237 41.7608C8.74932 40.3447 7.30608 38.6715 6.14691 36.8025C4.93156 34.8755 3.92762 32.8207 3.15283 30.6744C1.73359 26.6809 1.14303 22.322 1.96219 18.1265C2.81628 13.7676 4.97849 9.65227 8.42024 6.82218C10.3094 5.26771 12.5796 4.29016 14.8656 3.48889C17.4056 2.60429 22.0349 1.56584 23.6446 1.56584C32.0299 1.56584 39.2754 7.97601 42.0282 15.8028C43.5143 20.0397 43.9012 24.59 43.1521 29.0206" fill="#AC8557"/>
<path d="M35.1254 28.2491C35.1602 28.157 35.1774 28.0591 35.1762 27.9606V16.1659C35.1787 16.0149 35.1367 15.8665 35.0555 15.7396L34.5412 15.3486L22.2506 15.3262L20.2535 16.5313L19.6184 16.9127L16.9863 18.5152L16.1068 19.0473L14.6622 19.9191L14.4717 21.5216V32.1849C14.4714 32.2676 14.4843 32.3499 14.5098 32.4285V33.249H28.2324C28.3708 33.2496 28.5061 33.207 28.6197 33.1272L35.2429 28.4253L35.1254 28.2491ZM20.0026 20.2075H22.5109V23.5729H20.0026V20.2075ZM15.7195 32.0663C15.7195 32.0663 15.7195 32.0439 15.7195 32.0311C15.7195 32.0182 15.8084 20.2748 15.7195 20.3806L19.1962 20.2075V23.7812C19.1926 23.8772 19.226 23.9708 19.2893 24.0425C19.3526 24.1142 19.441 24.1584 19.5359 24.1658C19.5662 24.2302 19.6145 24.2842 19.6749 24.3212C19.7353 24.3583 19.805 24.3766 19.8756 24.3741H22.7808C22.9018 24.3585 23.0153 24.3064 23.1065 24.2246C23.1977 24.1428 23.2623 24.0352 23.292 23.9158V20.3902H27.6577V31.8035C27.6561 31.8905 27.6792 31.9762 27.7243 32.0503L15.7195 32.0663ZM28.5975 31.7458V19.887C28.5992 19.8539 28.5992 19.8207 28.5975 19.7876L33.9316 16.0024V27.7939C33.9265 27.8376 33.9265 27.8817 33.9316 27.9254L28.5975 31.7458Z" fill="#AC8557"/>
<path d="M28.9121 31.2649L33.6048 27.938V16.7683L28.9121 20.0952V31.2649Z" fill="#CFB79B"/>
<path d="M23.6099 24.082C23.5835 24.2891 23.4862 24.4803 23.3349 24.6225C23.1835 24.7648 22.9876 24.8491 22.7812 24.8609H19.876C19.7744 24.8628 19.6737 24.8416 19.5814 24.7989C19.489 24.7562 19.4074 24.693 19.3426 24.6141C19.2054 24.5677 19.0865 24.4783 19.0031 24.359C18.9197 24.2397 18.8763 24.0966 18.879 23.9506V20.7039L16.0501 20.8481C16.0913 21.5244 16.0882 23.0147 16.0723 26.3833C16.0723 28.7454 16.0469 31.1044 16.0405 31.9088H27.3405V20.8833H23.6099V24.082Z" fill="#CFB79B"/>
<path d="M22.1807 20.6885H20.3042V23.4192H22.1807V20.6885Z" fill="#CFB79B"/>
<path d="M22.4985 20.2075H20.0029V23.5729H22.5112L22.4985 20.2075ZM22.181 23.4126H20.3204V20.6883H22.1969L22.181 23.4126Z" fill="#CFB79B"/>
<path d="M27.6582 20.3966H23.2925V23.9222C23.2617 24.0405 23.1966 24.1467 23.1055 24.2272C23.0144 24.3078 22.9014 24.3589 22.7813 24.3741H19.8761C19.8055 24.3767 19.7357 24.3583 19.6754 24.3213C19.615 24.2842 19.5667 24.2302 19.5364 24.1658C19.4415 24.1584 19.3531 24.1142 19.2898 24.0425C19.2265 23.9708 19.1931 23.8772 19.1966 23.7812V20.2075L15.7231 20.371C15.812 20.2652 15.7231 32.0215 15.7231 32.0215C15.7231 32.0215 15.7231 32.0471 15.7231 32.0567H27.7248C27.6797 31.9826 27.6566 31.8969 27.6582 31.8099V20.3966ZM27.3407 31.8997H16.0406C16.0406 31.0952 16.0629 28.7363 16.0724 26.3741C16.0883 23.0056 16.0914 21.5152 16.0502 20.8389L18.8791 20.7043V23.9511C18.8764 24.0971 18.9199 24.2401 19.0032 24.3595C19.0866 24.4788 19.2055 24.5681 19.3427 24.6145C19.4075 24.6934 19.4892 24.7566 19.5815 24.7993C19.6739 24.8421 19.7745 24.8632 19.8761 24.8613H22.7813C22.9877 24.8495 23.1836 24.7652 23.335 24.623C23.4863 24.4807 23.5836 24.2895 23.61 24.0825V20.8774H27.3407V31.8997Z" fill="#CFB79B"/>
<path d="M33.922 15.9993L28.5752 19.7684C28.5769 19.8015 28.5769 19.8347 28.5752 19.8678V31.7266L33.9156 27.9382C33.9106 27.8945 33.9106 27.8504 33.9156 27.8068L33.922 15.9993ZM33.6045 27.9382L28.9149 31.2651V20.0954L33.6045 16.7685V27.9382Z" fill="#CFB79B"/>
<path d="M20.252 16.531L20.2441 16.5363L20.252 16.531Z" fill="#CFB79B"/>
<path d="M7.09613 24.9828C7.0927 25.0865 7.11008 25.1898 7.14724 25.2865C7.1844 25.3832 7.24055 25.4714 7.31233 25.5457C7.38412 25.6199 7.47004 25.6787 7.56493 25.7186C7.65982 25.7585 7.76171 25.7785 7.86449 25.7776H14.4654V24.1751H7.86449C7.76171 24.1742 7.65982 24.1942 7.56493 24.2341C7.47004 24.274 7.38412 24.3328 7.31233 24.407C7.24055 24.4813 7.1844 24.5695 7.14724 24.6662C7.11008 24.7629 7.0927 24.8662 7.09613 24.9699" fill="#AC8557"/>
<path d="M6.03253 19.9128C5.82201 19.9128 5.62012 19.9972 5.47126 20.1475C5.3224 20.2978 5.23877 20.5016 5.23877 20.7141C5.23877 20.9266 5.3224 21.1304 5.47126 21.2807C5.62012 21.4309 5.82201 21.5153 6.03253 21.5153H14.4655L14.656 19.9128L16.1006 19.041L14.656 19.9128H6.03253Z" fill="#AC8557"/>
<path d="M11.4018 17.7138C11.3983 17.8177 11.4158 17.9213 11.4532 18.0183C11.4905 18.1152 11.547 18.2035 11.6191 18.2778C11.6912 18.3521 11.7775 18.4109 11.8728 18.4506C11.968 18.4902 12.0703 18.51 12.1733 18.5086H16.9804L19.6125 16.9061H12.1733C12.0703 16.9047 11.968 16.9245 11.8728 16.9641C11.7775 17.0038 11.6912 17.0626 11.6191 17.1369C11.547 17.2112 11.4905 17.2995 11.4532 17.3964C11.4158 17.4934 11.3983 17.597 11.4018 17.7009" fill="#AC8557"/>
</svg>
