<svg width="31" height="30" viewBox="0 0 31 30" fill="none" xmlns="http://www.w3.org/2000/svg">
<g clip-path="url(#clip0)">
<path d="M15.25 2.70088C19.2578 2.70088 19.7322 2.71869 21.3081 2.789C22.7734 2.85369 23.5637 3.09931 24.0916 3.30463C24.7891 3.57463 25.2925 3.90275 25.8137 4.424C26.3416 4.95181 26.6631 5.44963 26.9388 6.14713C27.1441 6.67494 27.3897 7.47088 27.4544 8.93056C27.5247 10.5131 27.5425 10.9874 27.5425 14.9896C27.5425 18.9918 27.5247 19.4718 27.4544 21.0487C27.3897 22.514 27.1441 23.3043 26.9388 23.8321C26.6688 24.5296 26.3416 25.0331 25.8194 25.5543C25.2916 26.0821 24.7938 26.4037 24.0972 26.6793C23.5694 26.8846 22.7725 27.1302 21.3138 27.1949C19.7313 27.2652 19.2569 27.2831 15.2547 27.2831C11.2525 27.2831 10.7725 27.2652 9.19563 27.1949C7.73031 27.1302 6.94 26.8846 6.41219 26.6793C5.71469 26.4093 5.21125 26.0821 4.68906 25.5599C4.16125 25.0321 3.83969 24.5343 3.56406 23.8377C3.35875 23.3099 3.11312 22.5131 3.04844 21.0543C2.97812 19.4718 2.96031 18.9974 2.96031 14.9953C2.96031 10.9931 2.97812 10.5131 3.04844 8.93619C3.11312 7.47088 3.35875 6.68056 3.56406 6.15275C3.83406 5.45525 4.16219 4.95181 4.68344 4.42963C5.21125 3.90181 5.70906 3.58025 6.40656 3.30463C6.93437 3.09931 7.73031 2.85369 9.19 2.789C10.7659 2.71869 11.2412 2.70088 15.2491 2.70088H15.25ZM15.25 -6.19506e-05C11.1775 -6.19506e-05 10.6684 0.0177505 9.06812 0.088063C7.47438 0.158376 6.37844 0.416188 5.42969 0.785563C4.43969 1.17181 3.60156 1.68181 2.77 2.51994C1.93187 3.35244 1.42188 4.18963 1.03562 5.174C0.66625 6.12931 0.408438 7.21869 0.338125 8.81244C0.267812 10.4184 0.25 10.9274 0.25 14.9999C0.25 19.0724 0.267812 19.5815 0.338125 21.1818C0.408438 22.7756 0.66625 23.8715 1.03562 24.8202C1.42281 25.8103 1.93187 26.6484 2.77 27.4799C3.60156 28.3115 4.43969 28.8281 5.42406 29.2087C6.37937 29.5781 7.46875 29.8359 9.0625 29.9062C10.6619 29.9765 11.1719 29.9943 15.2444 29.9943C19.3169 29.9943 19.8269 29.9765 21.4262 29.9062C23.02 29.8359 24.1159 29.5781 25.0647 29.2087C26.0491 28.8281 26.8872 28.3124 27.7188 27.4799C28.5503 26.6474 29.0669 25.8103 29.4475 24.8259C29.8169 23.8706 30.0747 22.7812 30.145 21.1874C30.2153 19.5881 30.2331 19.0781 30.2331 15.0056C30.2331 10.9331 30.2153 10.424 30.145 8.82369C30.0747 7.22994 29.8169 6.134 29.4475 5.18525C29.0781 4.18869 28.5681 3.3515 27.7309 2.519C26.8994 1.68744 26.0613 1.17088 25.0769 0.790251C24.1216 0.420876 23.0322 0.163063 21.4384 0.0927505C19.8334 0.0168131 19.3234 -0.000999451 15.2509 -0.000999451L15.25 -6.19506e-05Z" fill="black"/>
<path d="M15.25 7.29467C10.9966 7.29467 7.54468 10.7456 7.54468 15C7.54468 19.2544 10.9956 22.7053 15.25 22.7053C19.5044 22.7053 22.9553 19.2544 22.9553 15C22.9553 10.7465 19.5044 7.29467 15.25 7.29467ZM15.25 19.9978C12.49 19.9978 10.2522 17.76 10.2522 15C10.2522 12.24 12.49 10.0022 15.25 10.0022C18.01 10.0022 20.2478 12.24 20.2478 15C20.2478 17.76 18.01 19.9978 15.25 19.9978Z" fill="black"/>
<path d="M25.0581 6.99C25.0581 7.98375 24.2528 8.78906 23.259 8.78906C22.2653 8.78906 21.46 7.98375 21.46 6.99C21.46 5.99625 22.2653 5.19093 23.259 5.19093C24.2528 5.19093 25.0581 5.99625 25.0581 6.99Z" fill="black"/>
</g>
<defs>
<clipPath id="clip0">
<rect width="30" height="30" fill="white" transform="translate(0.25)"/>
</clipPath>
</defs>
</svg>
