<svg width="45" height="46" viewBox="0 0 45 46" fill="none" xmlns="http://www.w3.org/2000/svg">
<path d="M44.3311 18.6605C42.2292 9.01041 35.5392 2.18845 25.455 0.856107C22.8101 0.504168 17.3743 1.51913 14.9231 2.35499C12.6656 3.11857 10.4049 4.00785 8.45537 5.39361C5.00083 7.8289 2.56551 11.3829 1.24466 15.339C-1.70186 24.1815 0.790615 32.5903 6.53442 39.5348C8.08388 41.4202 11.4495 44.1132 13.8563 44.7165C16.1932 45.3073 18.0061 45.4047 20.3843 45.6278C25.147 46.0803 30.0431 45.6843 34.0755 42.9034C36.0204 41.5157 37.8528 39.9797 39.5557 38.3093C41.2894 36.6533 42.7594 34.7994 43.6389 32.5652C45.3281 28.2665 45.3059 23.1194 44.3311 18.6605ZM43.1532 28.9044C42.7531 31.1794 42.0323 33.3225 40.5749 35.1545C39.2096 36.8764 37.4824 38.3156 35.8123 39.7454C34.085 41.2317 32.2498 42.6646 30.0685 43.4344C27.922 44.1475 25.6634 44.4722 23.4007 44.3929C21.1401 44.3312 18.8861 44.1212 16.6535 43.7644C14.4691 43.4502 12.183 42.8688 10.4239 41.4108C8.74953 40.0224 7.30625 38.382 6.14705 36.5496C4.93085 34.6564 3.92687 32.6376 3.15291 30.529C1.73363 26.6136 1.14305 22.3401 1.96541 18.2268C2.81952 13.9533 4.97861 9.91854 8.42044 7.14388C10.3096 5.61985 12.5799 4.66145 14.8659 3.87587C17.4061 3.00859 22.0354 1.99048 23.6452 1.99048C32.0339 1.99048 39.2763 8.27511 42.0292 15.9486C43.5153 20.1025 43.9022 24.5638 43.1532 28.9075" fill="#AC8557"/>
<path d="M27.9413 22.9442C27.4504 22.2547 27.1332 21.459 27.016 20.6235C26.8989 19.788 26.9853 18.9368 27.2681 18.1411C27.5508 17.3453 28.0217 16.628 28.6414 16.0489C29.2611 15.4698 30.0117 15.0457 30.8307 14.8119C31.5451 14.6077 32.2976 14.5543 33.012 14.3532C33.7264 14.152 34.4408 13.775 34.7869 13.1245C35.1044 15.3901 35.3838 17.7971 34.4154 19.8742C33.8783 20.9734 33.0255 21.8913 31.9636 22.5129C30.9018 23.1344 29.6782 23.4321 28.4462 23.3685" fill="#CFB79B"/>
<path d="M28.5028 22.6266C27.8444 21.7023 27.5437 20.5745 27.6556 19.4491C27.7675 18.3236 28.2846 17.2755 29.1125 16.4959C29.9824 15.6821 31.0175 15.3741 32.1764 15.1699C33.402 14.9531 34.6911 14.5854 35.3516 13.4353L34.1895 13.2876C34.507 15.5595 34.8245 18.1582 33.5259 20.2007C32.9786 21.0274 32.2208 21.6967 31.329 22.1413C30.4371 22.586 29.4426 22.7902 28.4457 22.7334C27.6297 22.6832 27.6328 23.9401 28.4457 23.9904C29.6447 24.0454 30.8377 23.7925 31.9087 23.2561C32.9798 22.7198 33.8924 21.9184 34.5578 20.9297C36.1454 18.573 35.7739 15.5878 35.4151 12.9483C35.3389 12.3952 34.5006 12.3669 34.253 12.8006C33.5767 13.9821 31.8272 13.869 30.6778 14.1989C29.7666 14.4615 28.9314 14.9342 28.2406 15.5782C27.5499 16.2222 27.0233 17.0191 26.7041 17.9036C26.3849 18.788 26.2822 19.7348 26.4045 20.6662C26.5268 21.5975 26.8705 22.4869 27.4074 23.2613C27.8678 23.9244 28.9664 23.2959 28.5028 22.6329" fill="#CFB79B"/>
<path d="M20.2733 20.1259C20.6385 19.1556 20.719 18.1029 20.5055 17.0893C20.292 16.0757 19.7932 15.1425 19.0667 14.3974C17.93 13.2693 16.3298 12.6943 14.7327 12.512C13.1356 12.3298 11.5163 12.49 9.91601 12.6534C9.85393 13.8566 10.0745 15.0575 10.5605 16.162C11.0464 17.2666 11.7845 18.2445 12.7168 19.0192C13.649 19.7938 14.75 20.344 15.9334 20.6265C17.1167 20.909 18.3501 20.9162 19.5366 20.6475" fill="#CFB79B"/>
<path d="M20.8862 20.2919C21.2309 19.3516 21.3372 18.342 21.1961 17.3515C21.0549 16.3611 20.6705 15.42 20.0766 14.6106C18.7272 12.8195 16.53 12.0214 14.3614 11.8391C12.8825 11.7605 11.3995 11.8205 9.93206 12.0182C9.7654 12.0237 9.60708 12.0917 9.48917 12.2084C9.37127 12.3251 9.30258 12.4817 9.29703 12.6467C9.24473 13.9311 9.48627 15.2106 10.0036 16.3897C10.521 17.5688 11.3008 18.617 12.2848 19.4561C13.3046 20.2955 14.5046 20.8932 15.7934 21.2036C17.0821 21.5141 18.4255 21.529 19.721 21.2472C20.5179 21.0744 20.1814 19.8614 19.3844 20.0343C18.2854 20.2707 17.1461 20.2543 16.0545 19.9862C14.9629 19.7182 13.948 19.2057 13.0881 18.4882C12.2532 17.7631 11.5933 16.8619 11.157 15.8509C10.7207 14.8399 10.5191 13.745 10.5671 12.6467L9.93206 13.2751C12.5611 13.0049 15.4949 12.6938 17.8286 14.199C18.745 14.8129 19.425 15.7152 19.7581 16.7596C20.0913 17.804 20.058 18.9292 19.6638 19.9526C19.619 20.113 19.6402 20.2845 19.723 20.4294C19.8057 20.5743 19.9432 20.6808 20.1052 20.7256C20.2673 20.77 20.4405 20.7489 20.587 20.667C20.7334 20.5852 20.841 20.4491 20.8862 20.2888" fill="#CFB79B"/>
<path d="M20.2954 26.602C19.0095 25.1754 16.8281 24.9806 14.9231 25.1974C14.3543 25.2421 13.7955 25.3714 13.2657 25.5808C12.2827 26.0614 11.5081 26.877 11.0843 27.8778C10.6663 28.8705 10.372 29.9099 10.208 30.973C11.4273 30.8504 12.6052 31.3878 13.8086 31.6392C14.8981 31.8603 16.0225 31.8518 17.1085 31.6141C18.1944 31.3764 19.2176 30.9149 20.1112 30.2597C20.6347 29.9202 21.0403 29.4299 21.2733 28.8551C21.4607 28.2706 21.2733 27.5353 20.7463 27.2368" fill="#CFB79B"/>
<path d="M20.7463 26.1557C19.0698 24.352 16.1709 24.2326 13.8975 24.7228C13.2689 24.8674 12.6765 25.1369 12.1563 25.5151C11.6362 25.8932 11.1991 26.372 10.8716 26.9224C10.1318 28.0945 9.84923 29.4677 9.58569 30.8032C9.55978 30.8965 9.55599 30.9945 9.57462 31.0895C9.59326 31.1845 9.63381 31.2739 9.69312 31.3509C9.75243 31.4278 9.8289 31.4902 9.91656 31.5331C10.0042 31.576 10.1007 31.5982 10.1985 31.5982C11.6051 31.4851 12.9259 32.1732 14.3039 32.3523C15.6147 32.5233 16.9477 32.3887 18.1966 31.9595C19.3683 31.551 20.6383 30.8817 21.4162 29.8762C22.1941 28.8706 22.2036 27.4032 21.0574 26.693C20.3621 26.2657 19.7239 27.3529 20.4224 27.7803C20.5523 27.8878 20.6435 28.0341 20.6824 28.1972C20.7214 28.3603 20.7059 28.5316 20.6383 28.6853C20.4568 29.1031 20.1582 29.4607 19.7778 29.7159C18.9166 30.3627 17.9193 30.8095 16.8599 31.0231C15.8316 31.2385 14.7678 31.2256 13.7451 30.9854C12.5671 30.7089 11.4177 30.2438 10.1858 30.357L10.7954 31.1394C11.2209 29.0655 11.7956 26.4574 14.2372 25.9232C16.0693 25.5304 18.4887 25.5744 19.8477 27.0355C20.4002 27.6326 21.2987 26.7402 20.7463 26.1463" fill="#CFB79B"/>
<path d="M31.5223 16.2418C29.6105 18.4993 28.3394 21.2191 27.8392 24.1227C27.3253 26.9602 27.2579 29.8591 27.6391 32.717C27.8455 34.3101 28.1789 35.8876 28.5028 37.4619C28.6679 38.2537 29.8903 37.9175 29.7284 37.1288C29.2013 34.5741 28.7155 32.0602 28.6964 29.4458C28.6742 26.6177 28.9632 23.7897 30.0173 21.1124C30.585 19.6583 31.3977 18.31 32.4209 17.1248C32.9543 16.5183 32.0589 15.6228 31.5223 16.2387" fill="#AC8557"/>
<path d="M28.8686 32.1293C27.8176 29.4521 26.7603 26.7309 25.2489 24.2736C23.9147 22.1125 22.1931 20.2106 20.1687 18.6614C18.71 17.5518 17.1795 16.5378 15.587 15.6259C14.8821 15.2143 14.2408 16.3015 14.952 16.71C17.4349 18.1555 19.8639 19.7581 21.842 21.854C23.4963 23.6043 24.706 25.6845 25.7188 27.8589C26.4205 29.3673 27.0365 30.9133 27.6461 32.4624C27.6942 32.6211 27.8022 32.7553 27.9477 32.8372C28.0931 32.9191 28.2649 32.9425 28.4272 32.9024C28.5892 32.8576 28.7267 32.7511 28.8094 32.6062C28.8922 32.4613 28.9134 32.2898 28.8686 32.1293Z" fill="#AC8557"/>
<path d="M13.8119 29.8418C15.4762 28.8705 17.2834 28.1622 19.1684 27.7427C21.0314 27.2552 22.9586 27.0518 24.8836 27.1394C25.6996 27.1928 25.6964 25.9359 24.8836 25.8825C22.8404 25.7918 20.7952 26.0112 18.8191 26.5329C16.8313 26.9777 14.9256 27.7261 13.1706 28.7514C12.4784 29.1787 13.1134 30.266 13.8056 29.8386" fill="#AC8557"/>
</svg>
